<?xml version="1.0" encoding="UTF-8" standalone="no"?>
<!-- Created with Inkscape (http://www.inkscape.org/) -->

<svg
   xmlns:dc="http://purl.org/dc/elements/1.1/"
   xmlns:cc="http://creativecommons.org/ns#"
   xmlns:rdf="http://www.w3.org/1999/02/22-rdf-syntax-ns#"
   xmlns:svg="http://www.w3.org/2000/svg"
   xmlns="http://www.w3.org/2000/svg"
   xmlns:sodipodi="http://sodipodi.sourceforge.net/DTD/sodipodi-0.dtd"
   xmlns:inkscape="http://www.inkscape.org/namespaces/inkscape"
   width="1052.3622"
   height="744.09448"
   id="svg2"
   version="1.1"
   inkscape:version="0.48.1 r9760"
   sodipodi:docname="JGloss Logo.svg"
   inkscape:export-filename="/home/michael/JGloss Logo.png"
   inkscape:export-xdpi="32.02"
   inkscape:export-ydpi="32.02">
  <sodipodi:namedview
     id="base"
     pagecolor="#ffffff"
     bordercolor="#666666"
     borderopacity="1.0"
     inkscape:pageopacity="0.0"
     inkscape:pageshadow="2"
     inkscape:zoom="0.84263393"
     inkscape:cx="606.95968"
     inkscape:cy="359.25726"
     inkscape:document-units="px"
     inkscape:current-layer="layer1"
     showgrid="false"
     inkscape:window-width="1680"
     inkscape:window-height="972"
     inkscape:window-x="0"
     inkscape:window-y="24"
     inkscape:window-maximized="1" />
  <defs
     id="defs4">
    <filter
       color-interpolation-filters="sRGB"
       y="-0.25"
       x="-0.25"
       height="1.5"
       width="1.5"
       inkscape:label="Drop shadow"
       id="filter4659">
      <feGaussianBlur
         result="blur"
         stdDeviation="2"
         in="SourceAlpha"
         id="feGaussianBlur4661" />
      <feColorMatrix
         values="1 0 0 0 0 0 1 0 0 0 0 0 1 0 0 0 0 0 0.5 0 "
         type="matrix"
         result="bluralpha"
         id="feColorMatrix4663" />
      <feOffset
         result="offsetBlur"
         dy="8"
         dx="8"
         in="bluralpha"
         id="feOffset4665" />
      <feMerge
         id="feMerge4667">
        <feMergeNode
           in="offsetBlur"
           id="feMergeNode4669" />
        <feMergeNode
           in="SourceGraphic"
           id="feMergeNode4671" />
      </feMerge>
    </filter>
    <filter
       id="filter6423"
       inkscape:menu-tooltip="Draws a black outline around"
       inkscape:menu="ABCs"
       inkscape:label="Drop shadow"
       color-interpolation-filters="sRGB"
       width="1.5"
       height="1.5"
       x="-.25"
       y="-.25">
      <feGaussianBlur
         id="feGaussianBlur6425"
         stdDeviation="2"
         in="SourceAlpha"
         result="result0" />
      <feComposite
         id="feComposite6427"
         in2="result0"
         result="result3"
         operator="arithmetic"
         in="SourceGraphic"
         k2="1"
         k3="10" />
      <feComposite
         id="feComposite6429"
         in2="result3"
         k2="1"
         operator="in"
         in="result3"
         result="fbSourceGraphic" />
      <feColorMatrix
         result="fbSourceGraphicAlpha"
         in="fbSourceGraphic"
         values="0 0 0 -1 0 0 0 0 -1 0 0 0 0 -1 0 0 0 0 1 0"
         id="feColorMatrix6487" />
      <feGaussianBlur
         id="feGaussianBlur6489"
         in="fbSourceGraphicAlpha"
         stdDeviation="2"
         result="blur" />
      <feColorMatrix
         id="feColorMatrix6491"
         result="bluralpha"
         type="matrix"
         values="1 0 0 0 0 0 1 0 0 0 0 0 1 0 0 0 0 0 0.5 0 " />
      <feOffset
         id="feOffset6493"
         in="bluralpha"
         dx="4"
         dy="4"
         result="offsetBlur" />
      <feMerge
         id="feMerge6495">
        <feMergeNode
           id="feMergeNode6497"
           in="offsetBlur" />
        <feMergeNode
           id="feMergeNode6499"
           in="fbSourceGraphic" />
      </feMerge>
    </filter>
  </defs>
  <metadata
     id="metadata7">
    <rdf:RDF>
      <cc:Work
         rdf:about="">
        <dc:format>image/svg+xml</dc:format>
        <dc:type
           rdf:resource="http://purl.org/dc/dcmitype/StillImage" />
        <dc:title></dc:title>
      </cc:Work>
    </rdf:RDF>
  </metadata>
  <g
     transform="translate(0,-308.2677)"
     inkscape:label="Ebene 1"
     inkscape:groupmode="layer"
     id="layer1">
    <path
       inkscape:connector-curvature="0"
       style="fill:#ff0000;fill-rule:evenodd;stroke:none;filter:url(#filter4659)"
       d="m 437.16344,630.07454 c -0.15148,0.0251 2.60817,32.81759 2.45148,32.44491 -0.15851,-0.40023 -9.26163,-61.59393 -9.63826,-62.26304 -0.37959,-0.67419 -12.24115,-28.82986 -12.87951,-29.77535 -0.64249,-0.95114 18.69081,61.34323 18.29613,59.8786 -0.39791,-1.47748 -17.9146,-56.67272 -18.88755,-58.29632 -0.97782,-1.63145 20.32657,72.69681 19.98011,70.45883 -0.34872,-2.25335 -0.75704,-3.86157 -1.26531,-6.44479 -0.51095,-2.59736 -6.03613,-27.1451 -7.02796,-29.9769 -0.99635,-2.84484 -28.16065,-59.89443 -30.25212,-62.52302 -2.09835,-2.63709 31.27386,67.24637 30.1715,63.70172 -1.1065,-3.55782 -34.65016,-68.78799 -37.30045,-71.86288 -2.65733,-3.08323 20.87219,32.02789 18.61431,28.25956 -2.26321,-3.7772 -47.68009,-56.5496 -51.43657,-59.40978 -3.7638,-2.86576 -7.58014,-5.47679 -11.79226,-8.2446 -4.21743,-2.77125 11.22726,9.02837 6.90965,5.87072 -4.31905,-3.15861 18.79498,15.17303 14.49516,11.514 -4.30248,-3.66123 3.795,3.79162 -0.71942,-0.0636 -4.5127,-3.85371 -7.2211,-6.05527 -12.21292,-9.7463 -4.99182,-3.69103 -69.37311,-33.99372 -75.68468,-35.42758 -6.31158,-1.43388 -22.16098,-4.32231 -28.87,-4.81937 -6.70329,-0.49657 27.33708,4.12408 20.47826,2.90487 -6.8526,-1.21812 -13.72157,-1.34009 -20.89554,-1.88897 -7.16366,-0.54809 4.72718,-0.3693 -2.66962,-0.75557 -7.38475,-0.38561 6.97935,0.75029 -0.62066,0.34544 -7.57935,-0.40376 -54.8941,3.38374 -62.44887,5.30005 -7.54028,1.91266 -4.95891,1.20794 -12.52059,3.73106 -7.53335,2.5136 -49.8209,24.62033 -56.35155,29.45595 -6.50479,4.81646 56.55663,-28.92332 48.77639,-26.12748 -7.74618,2.78356 -56.14027,31.99508 -62.38801,37.60044 -6.217379,5.57813 21.45093,-17.24746 14.60264,-12.20379 -6.80804,5.014 -12.17709,9.83558 -18.447499,15.71787 -6.23356,5.84766 -8.60811,8.16537 -14.34817,14.67462 -5.7,6.46335 -9.98392,12.09492 -14.94666,19.28869 -4.92387,7.13751 -10.64276,16.64619 -14.53932,24.51706 -3.86624,7.80959 -19.6567,81.31673 -19.53856,90.1324 0.11746,8.72948 2.60542,31.65052 4.48215,40.27139 1.87674,8.62087 -4.06309,-59.63878 -4.4011,-50.91505 -0.34175,8.80984 17.17763,90.08518 21.23279,97.79901 4.0867,7.77385 -19.95225,-61.04111 -18.33994,-52.52121 1.62495,8.58651 11.98552,40.20757 15.60752,48.02716 3.64805,7.87592 -3.74862,-8.29821 -0.16951,-0.55498 3.60764,7.80473 8.94708,17.16315 13.56348,24.2482 4.64366,7.12696 33.60799,38.33771 40.085039,43.61299 6.50915,5.30139 -21.488319,-19.66724 -15.774859,-13.74124 5.73778,5.95125 15.259799,14.55243 21.647369,19.52329 6.41254,4.99024 70.65089,33.5859 78.39678,35.33823 7.77672,1.75928 -49.93044,-17.25992 -42.91248,-13.90527 7.03141,3.36113 65.3108,17.68028 72.87992,18.23649 7.58803,0.55761 -11.93373,-0.0332 -4.57791,0.70243 7.37126,0.73719 30.92357,-0.41542 38.06997,-1.14408 7.15668,-0.72971 54.58539,-13.30735 60.92964,-16.16681 6.35056,-2.86224 -9.45152,3.98507 -3.25306,1.38063 6.20219,-2.60597 -37.1402,12.36304 -30.82863,10.92916 6.31158,-1.43387 77.38382,-38.33872 82.19354,-42.26409 4.80972,-3.92538 -6.30653,5.27694 -1.70089,1.53024 4.6034,-3.7449 -31.05909,22.68677 -26.13596,19.91221 4.92159,-2.77377 -5.75153,3.41691 -1.08347,0.79801 4.6665,-2.61814 65.98975,-62.48174 68.76831,-66.69642 2.77445,-4.20844 -34.56083,41.75531 -31.0869,38.54346 3.46512,-3.20361 34.7343,-43.48606 36.99781,-47.26375 2.25733,-3.76733 -10.84366,19.06471 -8.41585,15.80055 2.42235,-3.25676 -3.1996,3.79464 -0.96433,0.8137 2.22828,-2.9718 28.83472,-58.88377 29.85117,-62.09869 1.01247,-3.2023 -31.25749,66.18703 -29.42491,63.79597 1.8265,-2.38339 27.24031,-53.41135 28.1956,-55.88072 0.95089,-2.45811 -15.49165,37.02994 -14.30001,35.08861 1.1839,-1.92852 -3.24827,5.86217 -2.19132,4.27809 1.04945,-1.57247 13.11168,-26.18716 13.79294,-27.55407 0.67719,-1.35924 10.46945,-41.49803 10.77797,-42.60537 0.30631,-1.1001 -18.22292,60.91261 -17.74852,60.30142 0.47078,-0.60658 20.133,-74.05742 20.3193,-74.42102 0.18692,-0.3872 1.2012,-16.31075 1.35473,-16.30881 0.15354,0.002 -6.80799,52.78789 -6.75915,53.18921 0.043,0.42833 -5.38129,20.28601 -5.50701,21.04348 -0.12665,0.76327 -8.45633,19.29844 -8.82419,20.37835 -0.37008,1.08651 -0.93057,2.4019 -1.5031,3.80843 -0.57427,1.41211 15.49872,-37.92124 15.10333,-36.07019 -0.3972,1.8601 -14.76678,37.58735 -15.7413,39.63223 -0.98105,2.05834 14.88243,-34.55704 14.1453,-32.0266 -0.74026,2.54153 -16.7035,38.19358 -18.16871,40.81132 -1.47231,2.63024 -6.96145,10.28415 -8.82528,13.07876 -1.86986,2.80374 33.52622,-69.69938 32.69067,-66.08253 -0.83862,3.63031 -22.21789,51.17853 -24.25147,54.69185 -2.03914,3.52273 -33.34166,42.12274 -36.46563,45.2113 -3.13131,3.09585 45.74486,-58.62496 43.5542,-54.44251 -2.19493,4.19059 -50.50223,61.68395 -54.34796,64.94173 -3.85054,3.26189 14.36082,-11.84728 10.44162,-8.20774 -3.92513,3.64497 -34.61245,25.60258 -39.48253,28.45903 -4.87302,2.85823 34.67701,-24.40245 30.12631,-20.59279 -4.55025,3.8093 -69.60065,38.1591 -75.5642,39.88476 -5.96355,1.72566 56.05234,-24.3846 50.53404,-21.00222 -5.5183,3.38238 -26.98378,12.95515 -33.23649,15.43745 -6.24734,2.48022 -4.93777,2.08227 -11.53321,4.32149 -6.59054,2.23758 -14.14882,4.30874 -21.19818,5.74878 -7.03866,1.43785 3.69621,0.0546 -3.56243,1.52912 -7.2468,1.47213 -103.76522,-5.68478 -110.96722,-8.14022 -7.18405,-2.44933 78.63341,12.07478 70.83945,12.0469 -7.77903,-0.0278 -99.67544,-23.64445 -106.66645,-27.47831 -6.96377,-3.81899 14.91752,8.04479 7.61509,4.48143 -7.27455,-3.54978 -25.09652,-14.59813 -31.68877,-19.5863 -6.563849,-4.96664 -15.577269,-12.47942 -21.614879,-18.31052 -6.00831,-5.80271 -25.88875,-30.04132 -30.5981,-37.12366 -4.68177,-7.04134 11.95025,15.89594 6.85735,8.96906 -5.06292,-6.88615 -6.54611,-8.91359 -10.9855,-16.37082 -4.4083,-7.40485 11.8134,18.52296 6.81842,11.35225 -4.95624,-7.11507 -24.94592,-48.76989 -27.67048,-57.11917 -2.70336,-8.28427 -10.53307,-47.70368 -10.87439,-56.51296 -0.33849,-8.72428 3.00487,-46.12149 4.8816,-54.74236 1.87674,-8.62087 -3.43008,69.85956 -3.97573,61.14636 -0.5506,-8.79926 19.20539,-107.75448 23.09508,-115.55241 3.92022,-7.85912 -4.15029,6.90617 -0.0804,-0.76544 4.09551,-7.71982 26.28463,-39.44235 32.02396,-45.87081 5.78069,-6.47473 11.021,-11.77711 17.4366,-17.42618 6.45362,-5.68241 -4.9809,5.18648 1.36947,-0.39585 6.38881,-5.61608 -21.55478,20.71064 -15.82915,14.62725 5.75357,-6.11312 1.83601,-1.3253 7.76119,-7.03797 5.95125,-5.73778 72.931109,-47.66124 80.584479,-50.29496 7.68323,-2.64402 39.39573,-9.3396 47.29304,-10.17737 7.92817,-0.84106 17.10388,-1.35714 24.88112,-1.1881 7.7916,0.1694 -14.84787,0.19833 -7.2613,-0.0135 7.60495,-0.21231 27.51982,0.85614 34.83031,1.96203 7.3247,1.10803 34.61192,7.77799 41.41672,10.07944 6.81461,2.30475 -79.14047,-10.95334 -72.1816,-10.94834 6.96576,0.005 18.36344,0.33843 25.02915,1.19943 6.67201,0.86162 32.54634,6.47748 38.7204,8.4218 6.17351,1.94416 6.18591,2.04119 12.00475,4.2052 5.81884,2.16401 62.54904,34.68995 67.007,38.60686 4.45839,3.91728 23.37698,23.82376 26.8297,28.29747 3.45172,4.47231 7.38433,10.08555 10.33462,14.5543 2.9481,4.46538 3.51457,5.35178 6.08069,9.69908 2.56234,4.34084 4.10526,8.23744 6.19821,12.48052 2.08754,4.2323 -43.12773,-56.98221 -40.07034,-53.81174 3.04861,3.16137 19.33235,22.86618 21.61824,26.23056 2.28102,3.35727 -7.26549,-9.77499 -5.0381,-6.78816 2.22059,2.97756 28.05678,45.70836 29.27766,48.85195 1.21585,3.13075 12.25311,39.35342 12.67815,42.33642 0.4237,2.97272 -25.45498,-65.48882 -24.23503,-63.13826 1.21415,2.33931 25.95549,80.66697 26.06658,82.94214 0.11027,2.26023 -5.53478,-31.51541 -5.23032,-29.63674 0.30228,1.86618 4.47012,25.73202 4.49273,27.25969 0.0226,1.51842 -9.08359,-40.32339 -8.8764,-39.19271 0.20601,1.12322 2.90833,14.32229 2.93964,15.09536 0.0311,0.7672 4.03498,23.94577 3.92555,24.3394 -0.10528,0.41686 -3.96929,-21.17841 -4.11932,-21.14574 0,0 -6.03072,-21.54961 -6.03072,-21.54961 0,0 2.90386,9.32484 2.90386,9.32484 0,0 8.3702,53.85786 8.3702,53.85786 0,0 -8.03973,-55.42127 -8.03973,-55.42127"
       id="path0783" />
  </g>
  <g
     inkscape:label="Text"
     id="layer2"
     inkscape:groupmode="layer">
    <g
       style="font-size:250px;font-style:normal;font-variant:normal;font-weight:normal;font-stretch:normal;text-align:start;line-height:125%;letter-spacing:0px;word-spacing:0px;writing-mode:lr-tb;text-anchor:start;fill:#000000;fill-opacity:1;stroke:none;font-family:Sawasdee;-inkscape-font-specification:Sawasdee;filter:url(#filter6423)"
       id="text4713">
      <path
         d="m 189.30075,260.40775 10.25391,0 0,135.00976 c -1.1e-4,13.42777 -4.35394,24.98375 -13.06153,34.66797 -8.62638,9.60287 -19.16511,14.40429 -31.61621,14.4043 -12.5326,-10e-6 -23.1527,-4.80143 -31.86035,-14.4043 -8.62632,-9.60284 -12.93947,-21.15882 -12.93945,-34.66797 l 10.86426,0 c -3e-5,10.57946 3.33655,19.61266 10.00976,27.09961 6.75452,7.40561 14.81115,11.10841 24.16992,11.1084 9.35866,1e-5 17.3746,-3.70279 24.04785,-11.1084 6.75447,-7.48695 10.13175,-16.52015 10.13184,-27.09961 l 0,-135.00976"
         style=""
         id="path5324" />
      <path
         d="m 401.21481,296.17435 -8.78906,6.46972 c -7.56852,-10.17237 -17.09,-18.18831 -28.56445,-24.04785 -11.39336,-5.94058 -23.72245,-8.91096 -36.98731,-8.91113 -14.81129,1.7e-4 -28.48315,3.66228 -41.01562,10.98633 -12.45123,7.32437 -22.29822,17.29344 -29.54102,29.90722 -7.24287,12.53268 -10.86428,26.24523 -10.86426,41.1377 -2e-5,11.06779 2.11586,21.6472 6.34766,31.73828 4.31312,10.0912 10.0911,18.79887 17.33399,26.12305 7.24278,7.32424 15.90976,13.18361 26.00097,17.57812 10.09106,4.31316 20.67048,6.46974 31.73828,6.46973 14.16004,1e-5 27.34362,-3.37727 39.55078,-10.13184 12.20688,-6.83591 22.01318,-16.11324 29.41895,-27.83203 7.40541,-11.71869 11.5558,-24.57675 12.45117,-38.57422 l -81.4209,0 0,-10.86425 92.5293,0 0,5.49316 c -2e-4,12.61401 -2.4416,24.65827 -7.32422,36.13281 -4.883,11.39327 -11.47479,21.24027 -19.77539,29.54102 -8.21957,8.3008 -18.06656,14.89259 -29.54102,19.77539 -11.39336,4.88281 -23.35623,7.32421 -35.88867,7.32422 -12.53264,-10e-6 -24.49552,-2.44141 -35.88867,-7.32422 -11.39329,-4.8828 -21.19959,-11.47459 -29.41894,-19.77539 -8.21944,-8.30075 -14.77054,-18.14775 -19.65332,-29.54102 -4.88283,-11.47454 -7.32424,-23.5188 -7.32422,-36.13281 -2e-5,-12.61383 2.44139,-24.65809 7.32422,-36.13281 4.88278,-11.47447 11.43388,-21.36216 19.65332,-29.66309 8.21935,-8.30062 18.02565,-14.89241 29.41894,-19.77539 11.39315,-4.88263 23.35603,-7.32403 35.88867,-7.32422 14.89246,1.9e-4 28.88984,3.33677 41.99219,10.00977 13.10205,6.67334 23.88492,15.78792 32.34863,27.34375"
         style=""
         id="path5326" />
      <path
         d="m 465.79001,442.65872 -10.98633,0 0,-182.25097 10.98633,0 0,182.25097"
         style=""
         id="path5328" />
      <path
         d="m 564.54489,316.9263 c 8.54484,1.3e-4 16.72354,1.66842 24.53613,5.00488 7.81239,3.33671 14.56694,7.85331 20.26368,13.54981 5.69648,5.69671 10.21308,12.49195 13.5498,20.38574 3.33645,7.89396 5.00474,16.15404 5.00488,24.78027 -1.4e-4,8.70774 -1.66843,17.00851 -5.00488,24.90235 -3.33672,7.89391 -7.85332,14.68915 -13.5498,20.38574 -5.69674,5.61524 -12.45129,10.13184 -20.26368,13.5498 -7.81259,3.33659 -15.99129,5.00488 -24.53613,5.00489 -17.4968,-10e-6 -32.43006,-6.22558 -44.7998,-18.67676 -12.36982,-12.45114 -18.55471,-27.50647 -18.55469,-45.16602 -2e-5,-11.55591 2.8076,-22.21671 8.42285,-31.98242 5.69659,-9.8469 13.38701,-17.57801 23.07129,-23.19336 9.76557,-5.69649 20.38567,-8.54479 31.86035,-8.54492 m -52.49023,63.7207 c -3e-5,14.56711 5.12692,27.05896 15.38086,37.47559 10.33523,10.3353 22.78639,15.50294 37.35351,15.50293 14.56697,1e-5 26.97744,-5.16763 37.23145,-15.50293 10.33516,-10.41663 15.5028,-22.90848 15.50293,-37.47559 -1.3e-4,-14.4856 -5.16777,-26.89607 -15.50293,-37.23144 -10.25401,-10.33518 -22.66448,-15.50282 -37.23145,-15.50293 -14.56712,1.1e-4 -27.01828,5.16775 -37.35351,15.50293 -10.25394,10.33537 -15.38089,22.74584 -15.38086,37.23144"
         style=""
         id="path5330" />
      <path
         d="m 729.33981,340.73001 -10.13183,3.54004 c -1.70906,-5.45237 -4.59806,-9.60276 -8.66699,-12.45117 -4.06908,-2.92958 -8.42292,-4.39442 -13.06153,-4.39453 -5.37114,1.1e-4 -9.96912,1.70909 -13.79394,5.12695 -3.74353,3.41808 -5.61527,8.05674 -5.61524,13.91602 -3e-5,3.09254 0.85446,5.90015 2.56348,8.42285 1.70894,2.52287 3.9469,4.59806 6.71387,6.22558 2.76688,1.62769 5.90001,3.29598 9.39941,5.00489 3.58067,1.70906 7.20209,3.29597 10.86426,4.76074 3.66204,1.46491 7.24276,3.29597 10.74219,5.49316 3.58065,2.19733 6.75447,4.55736 9.52148,7.08008 2.76684,2.52284 5.00479,5.77805 6.71387,9.76563 1.70889,3.98767 2.56338,8.46358 2.56347,13.42773 -9e-5,11.31187 -4.02841,20.50783 -12.08496,27.58789 -8.05671,6.9987 -17.41543,10.49805 -28.07617,10.49805 -4.63872,0 -9.07394,-0.73243 -13.30566,-2.19727 -4.23181,-1.54622 -8.13806,-3.78417 -11.71875,-6.71387 -3.58076,-2.92967 -6.63251,-6.83592 -9.15528,-11.71875 -2.5228,-4.88278 -4.1504,-10.45732 -4.88281,-16.72363 l 10.86426,-1.58691 c 1.13929,9.27737 4.35381,16.27606 9.64355,20.99609 5.37106,4.72006 11.63733,7.08009 18.79883,7.08008 7.5683,10e-6 14.28216,-2.52278 20.1416,-7.56836 5.8593,-5.12693 8.78898,-11.67803 8.78907,-19.65332 -9e-5,-4.39449 -1.09872,-8.26005 -3.2959,-11.59668 -2.19735,-3.41792 -5.04565,-6.18484 -8.54493,-8.30078 -3.41803,-2.11583 -7.2429,-4.10964 -11.4746,-5.98145 -4.23183,-1.87168 -8.4636,-3.78411 -12.69532,-5.7373 -4.23181,-1.95306 -8.09737,-4.06894 -11.59668,-6.34766 -3.418,-2.35995 -6.22561,-5.4117 -8.42285,-9.15527 -2.19729,-3.82478 -3.29592,-8.17862 -3.2959,-13.06152 -2e-5,-9.11448 3.01104,-16.35731 9.03321,-21.72852 6.10347,-5.37097 13.30561,-8.05651 21.60644,-8.05664 6.83588,1.3e-4 13.22422,2.07532 19.16504,6.22559 5.94068,4.06912 10.17244,10.00987 12.69531,17.82226"
         style=""
         id="path5332" />
      <path
         d="m 838.22653,340.73001 -10.13183,3.54004 c -1.70906,-5.45237 -4.59806,-9.60276 -8.667,-12.45117 -4.06907,-2.92958 -8.42291,-4.39442 -13.06152,-4.39453 -5.37114,1.1e-4 -9.96912,1.70909 -13.79394,5.12695 -3.74353,3.41808 -5.61527,8.05674 -5.61524,13.91602 -3e-5,3.09254 0.85446,5.90015 2.56348,8.42285 1.70894,2.52287 3.9469,4.59806 6.71386,6.22558 2.76688,1.62769 5.90002,3.29598 9.39942,5.00489 3.58067,1.70906 7.20209,3.29597 10.86426,4.76074 3.66204,1.46491 7.24276,3.29597 10.74218,5.49316 3.58065,2.19733 6.75448,4.55736 9.52149,7.08008 2.76684,2.52284 5.00479,5.77805 6.71387,9.76563 1.70889,3.98767 2.56338,8.46358 2.56347,13.42773 -9e-5,11.31187 -4.02841,20.50783 -12.08496,27.58789 -8.05671,6.9987 -17.41543,10.49805 -28.07617,10.49805 -4.63872,0 -9.07394,-0.73243 -13.30566,-2.19727 -4.23181,-1.54622 -8.13806,-3.78417 -11.71875,-6.71387 -3.58076,-2.92967 -6.63251,-6.83592 -9.15528,-11.71875 -2.5228,-4.88278 -4.1504,-10.45732 -4.88281,-16.72363 l 10.86426,-1.58691 c 1.13929,9.27737 4.35381,16.27606 9.64355,20.99609 5.37105,4.72006 11.63732,7.08009 18.79883,7.08008 7.5683,10e-6 14.28216,-2.52278 20.1416,-7.56836 5.8593,-5.12693 8.78898,-11.67803 8.78906,-19.65332 -8e-5,-4.39449 -1.09871,-8.26005 -3.29589,-11.59668 -2.19735,-3.41792 -5.04565,-6.18484 -8.54493,-8.30078 -3.41803,-2.11583 -7.2429,-4.10964 -11.47461,-5.98145 -4.23182,-1.87168 -8.46359,-3.78411 -12.69531,-5.7373 -4.23181,-1.95306 -8.09737,-4.06894 -11.59668,-6.34766 -3.418,-2.35995 -6.22561,-5.4117 -8.42285,-9.15527 -2.19729,-3.82478 -3.29592,-8.17862 -3.2959,-13.06152 -2e-5,-9.11448 3.01104,-16.35731 9.03321,-21.72852 6.10347,-5.37097 13.30561,-8.05651 21.60644,-8.05664 6.83588,1.3e-4 13.22422,2.07532 19.16504,6.22559 5.94067,4.06912 10.17244,10.00987 12.69531,17.82226"
         style=""
         id="path5334" />
    </g>
  </g>
</svg>
